<svg width="132" height="114" viewBox="0 0 132 114" fill="none" xmlns="http://www.w3.org/2000/svg">
<path d="M82.6015 109.678C61.133 109.678 43.7303 92.5543 43.7303 71.4302C43.7303 50.306 61.133 33.1825 82.6015 33.1825C104.07 33.1825 121.473 50.306 121.473 71.4302C121.473 78.3951 119.58 84.9316 116.272 90.554L119.529 107.765L102.037 104.56C96.1304 107.922 89.4253 109.688 82.6015 109.678Z" stroke="#939393" stroke-width="8.15" stroke-linecap="round" stroke-linejoin="round"/>
<path d="M50.4785 92.5C74.7797 92.5 94.4785 72.9131 94.4785 48.75C94.4785 24.5869 74.7797 5 50.4785 5C26.1773 5 6.47852 24.5869 6.47852 48.75C6.47852 56.7169 8.62132 64.1937 12.3657 70.625L8.67852 90.3125L28.4785 86.6462C35.1645 90.4921 42.7544 92.5116 50.4785 92.5Z" fill="white"/>
<path d="M72.4785 50.9375C73.062 50.9375 73.6216 50.707 74.0341 50.2968C74.4467 49.8865 74.6785 49.3301 74.6785 48.75C74.6785 48.1698 74.4467 47.6134 74.0341 47.2032C73.6216 46.7929 73.062 46.5625 72.4785 46.5625C71.895 46.5625 71.3355 46.7929 70.9229 47.2032C70.5103 47.6134 70.2785 48.1698 70.2785 48.75C70.2785 49.3301 70.5103 49.8865 70.9229 50.2968C71.3355 50.707 71.895 50.9375 72.4785 50.9375ZM50.4785 50.9375C51.062 50.9375 51.6216 50.707 52.0341 50.2968C52.4467 49.8865 52.6785 49.3301 52.6785 48.75C52.6785 48.1698 52.4467 47.6134 52.0341 47.2032C51.6216 46.7929 51.062 46.5625 50.4785 46.5625C49.895 46.5625 49.3355 46.7929 48.9229 47.2032C48.5103 47.6134 48.2785 48.1698 48.2785 48.75C48.2785 49.3301 48.5103 49.8865 48.9229 50.2968C49.3355 50.707 49.895 50.9375 50.4785 50.9375ZM28.4785 50.9375C29.062 50.9375 29.6216 50.707 30.0341 50.2968C30.4467 49.8865 30.6785 49.3301 30.6785 48.75C30.6785 48.1698 30.4467 47.6134 30.0341 47.2032C29.6216 46.7929 29.062 46.5625 28.4785 46.5625C27.895 46.5625 27.3355 46.7929 26.9229 47.2032C26.5103 47.6134 26.2785 48.1698 26.2785 48.75C26.2785 49.3301 26.5103 49.8865 26.9229 50.2968C27.3355 50.707 27.895 50.9375 28.4785 50.9375Z" fill="#939393"/>
<path d="M50.4785 92.5C74.7797 92.5 94.4785 72.9131 94.4785 48.75C94.4785 24.5869 74.7797 5 50.4785 5C26.1773 5 6.47852 24.5869 6.47852 48.75C6.47852 56.7169 8.62132 64.1937 12.3657 70.625L8.67852 90.3125L28.4785 86.6462C35.1645 90.4921 42.7544 92.5116 50.4785 92.5Z" stroke="#939393" stroke-width="8.15" stroke-linecap="round" stroke-linejoin="round"/>
<path d="M72.4785 50.9375C73.062 50.9375 73.6216 50.707 74.0341 50.2968C74.4467 49.8865 74.6785 49.3301 74.6785 48.75C74.6785 48.1698 74.4467 47.6134 74.0341 47.2032C73.6216 46.7929 73.062 46.5625 72.4785 46.5625C71.895 46.5625 71.3355 46.7929 70.9229 47.2032C70.5103 47.6134 70.2785 48.1698 70.2785 48.75C70.2785 49.3301 70.5103 49.8865 70.9229 50.2968C71.3355 50.707 71.895 50.9375 72.4785 50.9375ZM50.4785 50.9375C51.062 50.9375 51.6216 50.707 52.0341 50.2968C52.4467 49.8865 52.6785 49.3301 52.6785 48.75C52.6785 48.1698 52.4467 47.6134 52.0341 47.2032C51.6216 46.7929 51.062 46.5625 50.4785 46.5625C49.895 46.5625 49.3355 46.7929 48.9229 47.2032C48.5103 47.6134 48.2785 48.1698 48.2785 48.75C48.2785 49.3301 48.5103 49.8865 48.9229 50.2968C49.3355 50.707 49.895 50.9375 50.4785 50.9375ZM28.4785 50.9375C29.062 50.9375 29.6216 50.707 30.0341 50.2968C30.4467 49.8865 30.6785 49.3301 30.6785 48.75C30.6785 48.1698 30.4467 47.6134 30.0341 47.2032C29.6216 46.7929 29.062 46.5625 28.4785 46.5625C27.895 46.5625 27.3355 46.7929 26.9229 47.2032C26.5103 47.6134 26.2785 48.1698 26.2785 48.75C26.2785 49.3301 26.5103 49.8865 26.9229 50.2968C27.3355 50.707 27.895 50.9375 28.4785 50.9375Z" stroke="#939393" stroke-width="8.15" stroke-linecap="round" stroke-linejoin="round"/>
</svg>
