<svg width="19" height="18" viewBox="0 0 19 18" fill="none" xmlns="http://www.w3.org/2000/svg">
<path d="M3 3.00037L15.5858 15.5862" stroke="white" stroke-linecap="round"/>
<path fill-rule="evenodd" clip-rule="evenodd" d="M3.12582 4.28747L1.88055 5.53274C1.37318 6.03839 1.0639 6.70918 1.00886 7.42337C0.953813 8.13757 1.15665 8.84783 1.58055 9.42524L2.66805 8.33774C2.52307 8.05467 2.47182 7.73283 2.5217 7.41872C2.57158 7.10461 2.72001 6.81449 2.94555 6.59024L4.18707 5.34872L3.12582 4.28747ZM6.86833 5.20156L7.39305 4.67774L9.86055 7.13774C9.99555 7.27275 10.2356 7.29524 10.3931 7.13774C10.5506 6.98025 10.5281 6.74024 10.3931 6.60524L7.72305 3.93524C7.1383 3.35049 6.18635 3.35024 5.60129 3.93451L4.54005 2.87327C5.10309 2.31421 5.86443 2.00037 6.65805 2.00037C7.45379 2.00037 8.21707 2.31588 8.78055 2.87774L8.99055 3.08774L9.20055 2.87774C9.76404 2.31588 10.5273 2.00037 11.3231 2.00037C12.1188 2.00037 12.8821 2.31588 13.4456 2.87774L16.6256 6.05774C17.1874 6.62123 17.5029 7.3845 17.5029 8.18024C17.5029 8.97599 17.1874 9.73926 16.6256 10.3027L14.2947 12.6279L13.2363 11.5695L15.5681 9.23774C16.1531 8.65274 16.1531 7.70024 15.5681 7.11524L12.3881 3.93524C11.8031 3.35024 10.8506 3.35024 10.2656 3.93524L10.0556 4.14524L11.4506 5.54024C12.1856 6.27524 12.1856 7.46024 11.4506 8.19524C11.1565 8.48616 10.7744 8.65831 10.3769 8.71011L6.86833 5.20156ZM5.4529 6.61455L3.04305 9.02024C2.30805 9.74774 2.30805 10.9402 3.04305 11.6752C3.33555 11.9677 3.71055 12.1477 4.10805 12.2002C4.16057 12.6035 4.34498 12.9781 4.63257 13.2657C4.92015 13.5533 5.29476 13.7377 5.69805 13.7902C5.75057 14.1935 5.93498 14.5682 6.22257 14.8557C6.51015 15.1433 6.88476 15.3277 7.28805 15.3802C7.34055 15.7852 7.52055 16.1527 7.81305 16.4452C8.16555 16.7977 8.63805 16.9927 9.14055 16.9927C9.64305 16.9927 10.1156 16.7977 10.4681 16.4452L12.8788 14.0404L11.8221 12.9837L9.41805 15.3877C9.28305 15.5227 9.04305 15.5452 8.88555 15.3877C8.8153 15.3169 8.77587 15.2212 8.77587 15.1215C8.77587 15.0218 8.8153 14.926 8.88555 14.8552L11.2896 12.4512L10.2321 11.3937L7.82805 13.7977C7.68555 13.9477 7.44555 13.9402 7.29555 13.7977C7.2253 13.7269 7.18587 13.6312 7.18587 13.5315C7.18587 13.4317 7.2253 13.336 7.29555 13.2652L9.69957 10.8612L8.64207 9.80372L6.23805 12.2077C6.10305 12.3427 5.86305 12.3652 5.70555 12.2077C5.63689 12.1361 5.59855 12.0407 5.59855 11.9415C5.59855 11.8423 5.63689 11.7469 5.70555 11.6752L8.10957 9.27122L7.04832 8.20997L4.64055 10.6177C4.50555 10.7527 4.26555 10.7752 4.10805 10.6177C4.03939 10.5461 4.00105 10.4507 4.00105 10.3515C4.00105 10.2523 4.03939 10.1569 4.10805 10.0852L6.51582 7.67747L5.4529 6.61455Z" fill="white"/>
</svg>
