<svg width="18" height="18" viewBox="0 0 18 18" fill="none" xmlns="http://www.w3.org/2000/svg">
<path d="M9.16512 14.8875C9.03012 15.0225 8.79012 15.045 8.63262 14.8875C8.56237 14.8167 8.52294 14.721 8.52294 14.6213C8.52294 14.5215 8.56237 14.4258 8.63262 14.355L11.1751 11.8125L10.1176 10.755L7.57512 13.2975C7.43262 13.4475 7.19262 13.44 7.04262 13.2975C6.97237 13.2267 6.93294 13.131 6.93294 13.0312C6.93294 12.9315 6.97237 12.8358 7.04262 12.765L9.58512 10.2225L8.52762 9.165L5.98512 11.7075C5.85012 11.8425 5.61012 11.865 5.45262 11.7075C5.38396 11.6359 5.34562 11.5405 5.34562 11.4413C5.34562 11.342 5.38396 11.2466 5.45262 11.175L7.99512 8.6325L6.93012 7.575L4.38762 10.1175C4.25262 10.2525 4.01262 10.275 3.85512 10.1175C3.78646 10.0459 3.74812 9.95048 3.74812 9.85125C3.74812 9.75202 3.78646 9.65663 3.85512 9.585L7.14012 6.3L8.54262 7.695C9.25512 8.4075 10.4851 8.4 11.1976 7.695C11.9326 6.96 11.9326 5.775 11.1976 5.04L9.80262 3.645L10.0126 3.435C10.5976 2.85 11.5501 2.85 12.1351 3.435L15.3151 6.615C15.9001 7.2 15.9001 8.1525 15.3151 8.7375L9.16512 14.8875ZM16.3726 9.8025C16.9345 9.23902 17.25 8.47574 17.25 7.68C17.25 6.88426 16.9345 6.12098 16.3726 5.5575L13.1926 2.3775C12.6291 1.81564 11.8659 1.50012 11.0701 1.50012C10.2744 1.50012 9.51111 1.81564 8.94762 2.3775L8.73762 2.5875L8.52762 2.3775C7.96414 1.81564 7.20086 1.50012 6.40512 1.50012C5.60938 1.50012 4.84611 1.81564 4.28262 2.3775L1.62762 5.0325C1.12025 5.53814 0.810971 6.20893 0.755927 6.92313C0.700883 7.63732 0.90372 8.34758 1.32762 8.925L2.41512 7.8375C2.27014 7.55442 2.21889 7.23259 2.26877 6.91848C2.31865 6.60437 2.46708 6.31424 2.69262 6.09L5.34762 3.435C5.93262 2.85 6.88512 2.85 7.47012 3.435L10.1401 6.105C10.2751 6.24 10.2976 6.48 10.1401 6.6375C9.98262 6.795 9.74262 6.7725 9.60762 6.6375L7.14012 4.1775L2.79012 8.52C2.05512 9.2475 2.05512 10.44 2.79012 11.175C3.08262 11.4675 3.45762 11.6475 3.85512 11.7C3.90764 12.1033 4.09205 12.4779 4.37964 12.7655C4.66722 13.0531 5.04183 13.2375 5.44512 13.29C5.49764 13.6933 5.68205 14.0679 5.96964 14.3555C6.25722 14.6431 6.63183 14.8275 7.03512 14.88C7.08762 15.285 7.26762 15.6525 7.56012 15.945C7.91262 16.2975 8.38512 16.4925 8.88762 16.4925C9.39012 16.4925 9.86262 16.2975 10.2151 15.945L16.3726 9.8025Z" fill="white"/>
</svg>
