<svg width="17" height="17" viewBox="0 0 17 17" fill="none" xmlns="http://www.w3.org/2000/svg">
<path d="M7.38 9.94049L5.64 8.20049C5.49333 8.05382 5.31333 7.98049 5.1 7.98049C4.88667 7.98049 4.7 8.06049 4.54 8.22049C4.39333 8.36716 4.32 8.55382 4.32 8.78049C4.32 9.00716 4.39333 9.19382 4.54 9.34049L6.82 11.6205C6.96667 11.7672 7.15333 11.8405 7.38 11.8405C7.60667 11.8405 7.79333 11.7672 7.94 11.6205L12.48 7.08049C12.6267 6.93382 12.7 6.75382 12.7 6.54049C12.7 6.32716 12.62 6.14049 12.46 5.98049C12.3133 5.83382 12.1267 5.76049 11.9 5.76049C11.6733 5.76049 11.4867 5.83382 11.34 5.98049L7.38 9.94049ZM8.5 16.5005C7.39333 16.5005 6.35333 16.2904 5.38 15.8701C4.40667 15.4504 3.56 14.8805 2.84 14.1605C2.12 13.4405 1.55013 12.5938 1.1304 11.6205C0.710133 10.6472 0.5 9.60716 0.5 8.50049C0.5 7.39382 0.710133 6.35382 1.1304 5.38049C1.55013 4.40716 2.12 3.56049 2.84 2.84049C3.56 2.12049 4.40667 1.55035 5.38 1.13009C6.35333 0.710355 7.39333 0.500488 8.5 0.500488C9.60667 0.500488 10.6467 0.710355 11.62 1.13009C12.5933 1.55035 13.44 2.12049 14.16 2.84049C14.88 3.56049 15.4499 4.40716 15.8696 5.38049C16.2899 6.35382 16.5 7.39382 16.5 8.50049C16.5 9.60716 16.2899 10.6472 15.8696 11.6205C15.4499 12.5938 14.88 13.4405 14.16 14.1605C13.44 14.8805 12.5933 15.4504 11.62 15.8701C10.6467 16.2904 9.60667 16.5005 8.5 16.5005Z" fill="white"/>
</svg>
