<svg width="40" height="30" viewBox="0 0 40 30" fill="none" xmlns="http://www.w3.org/2000/svg">
<path d="M27.9999 26V30H0V26C0 26 0 18 14 18C27.9999 18 27.9999 26 27.9999 26ZM20.9999 7.00008C20.9999 5.61562 20.5894 4.26224 19.8202 3.1111C19.0511 1.95996 17.9578 1.06276 16.6787 0.532947C15.3996 0.00313531 13.9922 -0.135488 12.6343 0.134608C11.2765 0.404704 10.0292 1.07139 9.05022 2.05035C8.07126 3.02931 7.40457 4.27659 7.13448 5.63445C6.86438 6.99232 7.00301 8.39978 7.53282 9.67885C8.06263 10.9579 8.95983 12.0512 10.111 12.8203C11.2621 13.5895 12.6155 14.0001 14 14.0001C15.8565 14.0001 17.6369 13.2626 18.9497 11.9498C20.2624 10.6371 20.9999 8.85659 20.9999 7.00008ZM27.8799 18C29.1094 18.9515 30.1154 20.1609 30.8272 21.543C31.539 22.9252 31.9393 24.4465 31.9999 26V30H39.9999V26C39.9999 26 39.9999 18.74 27.8799 18ZM25.9999 0.000105158C24.6233 -0.00756025 23.277 0.404015 22.1399 1.1801C23.3548 2.87757 24.008 4.91266 24.008 7.00008C24.008 9.0875 23.3548 11.1226 22.1399 12.8201C23.277 13.5961 24.6233 14.0077 25.9999 14.0001C27.8564 14.0001 29.6369 13.2626 30.9496 11.9498C32.2624 10.6371 32.9999 8.85659 32.9999 7.00008C32.9999 5.14357 32.2624 3.3631 30.9496 2.05035C29.6369 0.737601 27.8564 0.000105158 25.9999 0.000105158Z" fill="#FF5A5F"/>
</svg>
