<svg width="30" height="30" viewBox="0 0 30 30" fill="none" xmlns="http://www.w3.org/2000/svg">
<path d="M29 29V24.75C29 23.8692 28.7759 23.074 28.3267 22.3428L28.3265 22.3425C27.8743 21.6058 27.2842 21.0554 26.5464 20.6725C24.675 19.7373 22.7793 19.0384 20.8587 18.5726C18.9358 18.1075 16.9835 17.875 15 17.875C13.0167 17.875 11.0646 18.1075 9.14192 18.5725L29 29ZM29 29H1V24.75C1 23.8692 1.22414 23.074 1.67332 22.3428L1.67352 22.3425C2.12568 21.6058 2.71579 21.0554 3.45363 20.6725C5.32502 19.7373 7.22068 19.0384 9.14135 18.5726L29 29ZM15 14C13.2048 14 11.6929 13.3725 10.4102 12.0898C9.12752 10.8071 8.5 9.29518 8.5 7.5C8.5 5.70482 9.12752 4.19294 10.4102 2.91023C11.6929 1.62752 13.2048 1 15 1C16.7952 1 18.3071 1.62752 19.5898 2.91023C20.8725 4.19294 21.5 5.70482 21.5 7.5C21.5 9.29518 20.8725 10.8071 19.5898 12.0898C18.3071 13.3725 16.7952 14 15 14Z" stroke="#939393" stroke-width="2"/>
</svg>
