<svg width="30" height="30" viewBox="0 0 30 30" fill="none" xmlns="http://www.w3.org/2000/svg">
<path d="M15 1C16.7239 1 18.3772 1.68482 19.5962 2.90381C20.8152 4.12279 21.5 5.77609 21.5 7.5C21.5 9.22391 20.8152 10.8772 19.5962 12.0962C18.3772 13.3152 16.7239 14 15 14C13.2761 14 11.6228 13.3152 10.4038 12.0962C9.18482 10.8772 8.5 9.22391 8.5 7.5C8.5 5.77609 9.18482 4.12279 10.4038 2.90381C11.6228 1.68482 13.2761 1 15 1ZM15 18C19.0447 18 22.6448 18.6992 25.1945 19.8567C27.8032 21.0409 29 22.5372 29 24L29 29H1V24C1 22.5372 2.19684 21.0409 4.80554 19.8567C7.35523 18.6992 10.9553 18 15 18Z" fill="#FF5A5F" stroke="#FF5A5F" stroke-width="2"/>
</svg>
