<svg width="45" height="45" viewBox="0 0 45 45" fill="none" xmlns="http://www.w3.org/2000/svg">
<circle cx="22.5" cy="22.5" r="22.5" fill="#D9D9D9"/>
<path d="M22.5 9C24.2902 9 26.0071 9.71116 27.273 10.977C28.5388 12.2429 29.25 13.9598 29.25 15.75C29.25 17.5402 28.5388 19.2571 27.273 20.523C26.0071 21.7888 24.2902 22.5 22.5 22.5C20.7098 22.5 18.9929 21.7888 17.727 20.523C16.4612 19.2571 15.75 17.5402 15.75 15.75C15.75 13.9598 16.4612 12.2429 17.727 10.977C18.9929 9.71116 20.7098 9 22.5 9ZM22.5 25.875C29.9587 25.875 36 28.8956 36 32.625V36H9V32.625C9 28.8956 15.0412 25.875 22.5 25.875Z" fill="#939393"/>
</svg>
