<svg width="15" height="15" viewBox="0 0 15 15" fill="none" xmlns="http://www.w3.org/2000/svg">
<path d="M4.30419 6.04528C4.67607 6.04528 4.97753 5.75303 4.97753 5.39252C4.97753 5.03201 4.67607 4.73976 4.30419 4.73976C3.93232 4.73976 3.63086 5.03201 3.63086 5.39252C3.63086 5.75303 3.93232 6.04528 4.30419 6.04528Z" fill="#939393"/>
<path d="M10.08 3.65058C10.8308 3.65058 11.4395 3.06049 11.4395 2.33258C11.4395 1.60467 10.8308 1.01459 10.08 1.01459C9.3291 1.01459 8.72041 1.60467 8.72041 2.33258C8.72041 3.06049 9.3291 3.65058 10.08 3.65058Z" fill="#939393"/>
<path d="M7.27589 3.57541C7.74429 3.57541 8.124 3.2073 8.124 2.75322C8.124 2.29914 7.74429 1.93104 7.27589 1.93104C6.8075 1.93104 6.42779 2.29914 6.42779 2.75322C6.42779 3.2073 6.8075 3.57541 7.27589 3.57541Z" fill="#939393"/>
<path d="M11.1824 11.129C10.9734 10.8039 10.8561 10.4312 10.8422 10.0484C10.8284 9.66549 10.9184 9.2858 11.1033 8.94721L11.098 8.93955C11.4462 8.43421 11.6316 7.84001 11.6309 7.23233C11.6309 5.52963 10.207 4.14939 8.45074 4.14939C6.69436 4.14939 5.27062 5.52963 5.27062 7.23233C5.27062 7.56487 5.32645 7.88449 5.42709 8.18471C5.4937 8.45022 5.60185 8.70427 5.74779 8.93804L5.7329 8.94631L8.03638 12.8143C8.27954 13.5119 8.95861 14.0146 9.76004 14.0146C10.7655 14.0146 11.5811 13.2244 11.5811 12.2495C11.5811 11.8266 11.4272 11.4386 11.1712 11.1346L11.1824 11.129Z" fill="#939393"/>
<path d="M5.48462 4.66339C5.8565 4.66339 6.15796 4.37114 6.15796 4.01063C6.15796 3.65012 5.8565 3.35787 5.48462 3.35787C5.11275 3.35787 4.81129 3.65012 4.81129 4.01063C4.81129 4.37114 5.11275 4.66339 5.48462 4.66339Z" fill="#939393"/>
</svg>
