<svg width="27" height="26" viewBox="0 0 27 26" fill="none" xmlns="http://www.w3.org/2000/svg">
<path d="M22.5039 20.4167V21.5H3.00391V20.4167L5.17057 18.25V11.75C5.17057 8.39167 7.36974 5.43417 10.5872 4.48083V4.16667C10.5872 3.59203 10.8155 3.04093 11.2218 2.6346C11.6282 2.22827 12.1793 2 12.7539 2C13.3285 2 13.8796 2.22827 14.286 2.6346C14.6923 3.04093 14.9206 3.59203 14.9206 4.16667V4.48083C18.1381 5.43417 20.3372 8.39167 20.3372 11.75V18.25L22.5039 20.4167ZM14.9206 22.5833C14.9206 23.158 14.6923 23.7091 14.286 24.1154C13.8796 24.5217 13.3285 24.75 12.7539 24.75C12.1793 24.75 11.6282 24.5217 11.2218 24.1154C10.8155 23.7091 10.5872 23.158 10.5872 22.5833" fill="black"/>
</svg>
