<svg width="19" height="23" viewBox="0 0 19 23" fill="none" xmlns="http://www.w3.org/2000/svg">
<path d="M0.336914 3.37502V19.625C0.336914 20.3433 0.622256 21.0322 1.13017 21.5401C1.63808 22.048 2.32695 22.3334 3.04525 22.3334H17.3994C17.6149 22.3334 17.8216 22.2478 17.9739 22.0954C18.1263 21.943 18.2119 21.7363 18.2119 21.5209C18.2119 21.3054 18.1263 21.0987 17.9739 20.9463C17.8216 20.794 17.6149 20.7084 17.3994 20.7084H3.04525C2.75793 20.7084 2.48238 20.5942 2.27922 20.3911C2.07605 20.1879 1.96191 19.9123 1.96191 19.625H17.3994C17.6149 19.625 17.8216 19.5394 17.9739 19.387C18.1263 19.2347 18.2119 19.028 18.2119 18.8125V3.37502C18.2119 3.01936 18.1419 2.66718 18.0058 2.33859C17.8696 2.01 17.6702 1.71143 17.4187 1.45994C17.1672 1.20845 16.8686 1.00895 16.54 0.872847C16.2114 0.73674 15.8592 0.666687 15.5036 0.666687H3.04525C2.32695 0.666687 1.63808 0.952028 1.13017 1.45994C0.622256 1.96785 0.336914 2.65673 0.336914 3.37502ZM7.92025 7.18619C7.91516 7.39828 7.82731 7.59996 7.67549 7.74815C7.52366 7.89633 7.3199 7.97925 7.10775 7.97919C6.29525 7.97919 6.29525 7.1656 6.29525 7.1656V7.15585C6.29582 7.10735 6.29871 7.05891 6.30391 7.01069C6.35184 6.59221 6.50873 6.19363 6.75891 5.85477C7.25075 5.19069 8.13475 4.70427 9.55933 4.72919C10.5885 4.7476 11.5017 5.17877 12.0737 5.88835C12.6555 6.61094 12.8516 7.58919 12.4659 8.55227C12.0737 9.53269 11.1865 9.92269 10.6762 10.1459L10.6221 10.1708C10.3187 10.304 10.1747 10.3734 10.088 10.4427L10.0869 10.4438V11.2281C10.0871 11.4436 10.0016 11.6503 9.84932 11.8028C9.69705 11.9553 9.49044 12.041 9.27496 12.0411C9.05947 12.0413 8.85275 11.9558 8.70027 11.8036C8.5478 11.6513 8.46206 11.4447 8.46191 11.2292V10.4167C8.46191 9.8501 8.73491 9.44494 9.07183 9.1741C9.34266 8.95744 9.68391 8.80794 9.92333 8.70177L9.9645 8.68335C10.5517 8.42444 10.8312 8.2641 10.9579 7.94777C11.0323 7.7777 11.0578 7.59022 11.0313 7.40647C11.0049 7.22272 10.9277 7.05 10.8084 6.90777C10.5679 6.60985 10.127 6.36394 9.53117 6.35419C8.51825 6.33685 8.18241 6.66294 8.06541 6.82219C7.98793 6.92736 7.93802 7.05027 7.92025 7.17969V7.18619ZM10.3577 14.2084C10.3577 14.4957 10.2436 14.7712 10.0404 14.9744C9.83728 15.1775 9.56173 15.2917 9.27441 15.2917C8.9871 15.2917 8.71155 15.1775 8.50838 14.9744C8.30522 14.7712 8.19108 14.4957 8.19108 14.2084C8.19108 13.921 8.30522 13.6455 8.50838 13.4423C8.71155 13.2392 8.9871 13.125 9.27441 13.125C9.56173 13.125 9.83728 13.2392 10.0404 13.4423C10.2436 13.6455 10.3577 13.921 10.3577 14.2084Z" fill="black"/>
</svg>
