<svg width="21" height="26" viewBox="0 0 21 26" fill="none" xmlns="http://www.w3.org/2000/svg">
<path d="M0 3.625V22.375C0 23.2038 0.335226 23.9987 0.931933 24.5847C1.52864 25.1708 2.33795 25.5 3.18182 25.5H20.0455C20.2986 25.5 20.5414 25.4012 20.7204 25.2254C20.8994 25.0496 21 24.8111 21 24.5625C21 24.3139 20.8994 24.0754 20.7204 23.8996C20.5414 23.7238 20.2986 23.625 20.0455 23.625H3.18182C2.84427 23.625 2.52055 23.4933 2.28186 23.2589C2.04318 23.0245 1.90909 22.7065 1.90909 22.375H20.0455C20.2986 22.375 20.5414 22.2762 20.7204 22.1004C20.8994 21.9246 21 21.6861 21 21.4375V3.625C21 3.21462 20.9177 2.80826 20.7578 2.42911C20.5979 2.04997 20.3635 1.70547 20.0681 1.41529C19.7726 1.12511 19.4218 0.894922 19.0358 0.737876C18.6498 0.580831 18.236 0.5 17.8182 0.5H3.18182C2.33795 0.5 1.52864 0.82924 0.931933 1.41529C0.335226 2.00134 0 2.7962 0 3.625ZM8.90909 8.0225C8.90311 8.26722 8.79991 8.49994 8.62154 8.67091C8.44317 8.84189 8.20379 8.93757 7.95455 8.9375C7 8.9375 7 7.99875 7 7.99875V7.9875C7.00067 7.93154 7.00407 7.87564 7.01018 7.82C7.06648 7.33714 7.2508 6.87724 7.54473 6.48625C8.12255 5.72 9.16109 5.15875 10.8347 5.1875C12.0438 5.20875 13.1167 5.70625 13.7887 6.525C14.4722 7.35875 14.7025 8.4875 14.2495 9.59875C13.7887 10.73 12.7464 11.18 12.1469 11.4375L12.0833 11.4662C11.7269 11.62 11.5576 11.7 11.4558 11.78L11.4545 11.7812V12.6862C11.4547 12.9349 11.3543 13.1734 11.1754 13.3493C10.9965 13.5253 10.7538 13.6242 10.5006 13.6244C10.2475 13.6245 10.0046 13.5259 9.82548 13.3502C9.64635 13.1745 9.54562 12.9361 9.54545 12.6875V11.75C9.54545 11.0962 9.86618 10.6287 10.262 10.3162C10.5802 10.0662 10.9811 9.89375 11.2624 9.77125L11.3107 9.75C12.0005 9.45125 12.3289 9.26625 12.4778 8.90125C12.5652 8.70501 12.5951 8.48869 12.5641 8.27667C12.533 8.06465 12.4423 7.86536 12.3022 7.70125C12.0196 7.3575 11.5016 7.07375 10.8016 7.0625C9.61164 7.0425 9.21709 7.41875 9.07964 7.6025C8.98861 7.72386 8.92997 7.86567 8.90909 8.015V8.0225ZM11.7727 16.125C11.7727 16.4565 11.6386 16.7745 11.4 17.0089C11.1613 17.2433 10.8375 17.375 10.5 17.375C10.1625 17.375 9.83873 17.2433 9.60005 17.0089C9.36136 16.7745 9.22727 16.4565 9.22727 16.125C9.22727 15.7935 9.36136 15.4755 9.60005 15.2411C9.83873 15.0067 10.1625 14.875 10.5 14.875C10.8375 14.875 11.1613 15.0067 11.4 15.2411C11.6386 15.4755 11.7727 15.7935 11.7727 16.125Z" fill="black"/>
</svg>
