<svg width="21" height="25" viewBox="0 0 21 25" fill="none" xmlns="http://www.w3.org/2000/svg">
<path d="M0 3.125V21.875C0 22.7038 0.335226 23.4987 0.931933 24.0847C1.52864 24.6708 2.33795 25 3.18182 25H20.0455C20.2986 25 20.5414 24.9012 20.7204 24.7254C20.8994 24.5496 21 24.3111 21 24.0625C21 23.8139 20.8994 23.5754 20.7204 23.3996C20.5414 23.2238 20.2986 23.125 20.0455 23.125H3.18182C2.84427 23.125 2.52055 22.9933 2.28186 22.7589C2.04318 22.5245 1.90909 22.2065 1.90909 21.875H20.0455C20.2986 21.875 20.5414 21.7762 20.7204 21.6004C20.8994 21.4246 21 21.1861 21 20.9375V3.125C21 2.71462 20.9177 2.30826 20.7578 1.92911C20.5979 1.54997 20.3635 1.20547 20.0681 0.915291C19.7726 0.625108 19.4218 0.394922 19.0358 0.237876C18.6498 0.0808305 18.236 0 17.8182 0H3.18182C2.33795 0 1.52864 0.32924 0.931933 0.915291C0.335226 1.50134 0 2.2962 0 3.125ZM8.90909 7.5225C8.90311 7.76722 8.79991 7.99994 8.62154 8.17091C8.44317 8.34189 8.20379 8.43757 7.95455 8.4375C7 8.4375 7 7.49875 7 7.49875V7.4875C7.00067 7.43154 7.00407 7.37564 7.01018 7.32C7.06648 6.83714 7.2508 6.37724 7.54473 5.98625C8.12255 5.22 9.16109 4.65875 10.8347 4.6875C12.0438 4.70875 13.1167 5.20625 13.7887 6.025C14.4722 6.85875 14.7025 7.9875 14.2495 9.09875C13.7887 10.23 12.7464 10.68 12.1469 10.9375L12.0833 10.9662C11.7269 11.12 11.5576 11.2 11.4558 11.28L11.4545 11.2812V12.1862C11.4547 12.4349 11.3543 12.6734 11.1754 12.8493C10.9965 13.0253 10.7538 13.1242 10.5006 13.1244C10.2475 13.1245 10.0046 13.0259 9.82548 12.8502C9.64635 12.6745 9.54562 12.4361 9.54545 12.1875V11.25C9.54545 10.5962 9.86618 10.1287 10.262 9.81625C10.5802 9.56625 10.9811 9.39375 11.2624 9.27125L11.3107 9.25C12.0005 8.95125 12.3289 8.76625 12.4778 8.40125C12.5652 8.20501 12.5951 7.98869 12.5641 7.77667C12.533 7.56465 12.4423 7.36536 12.3022 7.20125C12.0196 6.8575 11.5016 6.57375 10.8016 6.5625C9.61164 6.5425 9.21709 6.91875 9.07964 7.1025C8.98861 7.22386 8.92997 7.36567 8.90909 7.515V7.5225ZM11.7727 15.625C11.7727 15.9565 11.6386 16.2745 11.4 16.5089C11.1613 16.7433 10.8375 16.875 10.5 16.875C10.1625 16.875 9.83873 16.7433 9.60005 16.5089C9.36136 16.2745 9.22727 15.9565 9.22727 15.625C9.22727 15.2935 9.36136 14.9755 9.60005 14.7411C9.83873 14.5067 10.1625 14.375 10.5 14.375C10.8375 14.375 11.1613 14.5067 11.4 14.7411C11.6386 14.9755 11.7727 15.2935 11.7727 15.625Z" fill="black"/>
</svg>
