<svg width="22" height="25" viewBox="0 0 22 25" fill="none" xmlns="http://www.w3.org/2000/svg">
<path d="M8.66667 18.75V15H0.5V10H8.66667V6.25L14.5 12.5L8.66667 18.75ZM8.66667 0H19.1667C19.7855 0 20.379 0.263392 20.8166 0.732233C21.2542 1.20107 21.5 1.83696 21.5 2.5V22.5C21.5 23.163 21.2542 23.7989 20.8166 24.2678C20.379 24.7366 19.7855 25 19.1667 25H8.66667C8.04783 25 7.45434 24.7366 7.01675 24.2678C6.57917 23.7989 6.33333 23.163 6.33333 22.5V20H8.66667V22.5H19.1667V2.5H8.66667V5H6.33333V2.5C6.33333 1.83696 6.57917 1.20107 7.01675 0.732233C7.45434 0.263392 8.04783 0 8.66667 0Z" fill="black"/>
</svg>
