<svg width="30" height="28" viewBox="0 0 30 28" fill="none" xmlns="http://www.w3.org/2000/svg">
<g filter="url(#filter0_d_901_457)">
<path d="M12.6944 19.25V15.5H3.75V10.5H12.6944V6.75L19.0833 13L12.6944 19.25ZM12.6944 0.5H24.1944C24.8722 0.5 25.5222 0.763392 26.0015 1.23223C26.4808 1.70107 26.75 2.33696 26.75 3V23C26.75 23.663 26.4808 24.2989 26.0015 24.7678C25.5222 25.2366 24.8722 25.5 24.1944 25.5H12.6944C12.0167 25.5 11.3667 25.2366 10.8874 24.7678C10.4081 24.2989 10.1389 23.663 10.1389 23V20.5H12.6944V23H24.1944V3H12.6944V5.5H10.1389V3C10.1389 2.33696 10.4081 1.70107 10.8874 1.23223C11.3667 0.763392 12.0167 0.5 12.6944 0.5Z" fill="black"/>
</g>
<defs>
<filter id="filter0_d_901_457" x="-0.25" y="0.5" width="31" height="33" filterUnits="userSpaceOnUse" color-interpolation-filters="sRGB">
<feFlood flood-opacity="0" result="BackgroundImageFix"/>
<feColorMatrix in="SourceAlpha" type="matrix" values="0 0 0 0 0 0 0 0 0 0 0 0 0 0 0 0 0 0 127 0" result="hardAlpha"/>
<feOffset dy="4"/>
<feGaussianBlur stdDeviation="2"/>
<feComposite in2="hardAlpha" operator="out"/>
<feColorMatrix type="matrix" values="0 0 0 0 0 0 0 0 0 0 0 0 0 0 0 0 0 0 0.25 0"/>
<feBlend mode="normal" in2="BackgroundImageFix" result="effect1_dropShadow_901_457"/>
<feBlend mode="normal" in="SourceGraphic" in2="effect1_dropShadow_901_457" result="shape"/>
</filter>
</defs>
</svg>
