<svg width="38" height="18" viewBox="0 0 38 18" fill="none" xmlns="http://www.w3.org/2000/svg">
<path d="M9.07179 1.7V13.9H6.5806C4.9684 13.9 3.42194 13.2577 2.28149 12.1139C1.141 10.97 0.5 9.41829 0.5 7.8C0.5 6.18171 1.141 4.62999 2.28149 3.48613C3.42194 2.34232 4.9684 1.7 6.5806 1.7L9.07179 1.7ZM37.5 10.8C37.5 12.9236 35.9796 14.5909 33.7263 15.7558C31.4849 16.9146 28.646 17.5 26.3224 17.5C25.2076 17.5 24.0724 17.2206 22.742 16.7758C22.1245 16.5694 21.4743 16.3307 20.7682 16.0715C20.7144 16.0517 20.6603 16.0318 20.6058 16.0119C19.839 15.7305 19.0105 15.4283 18.1056 15.1258L14.8577 14.04V1.68504C15.7209 1.63617 16.7183 1.47369 17.8571 1.28816C18.245 1.22497 18.6493 1.15911 19.0703 1.09415C21.0008 0.796272 23.3662 0.5 26.3224 0.5C32.0808 0.5 37.5 5.12074 37.5 10.8Z" stroke="black"/>
</svg>
