<svg width="39" height="19" viewBox="0 0 39 19" fill="none" xmlns="http://www.w3.org/2000/svg">
<path d="M25.3507 18.2331L25.3508 18.2331C31.0031 19.2343 37.1189 15.6335 38.0982 10.0467L38.5907 10.133L38.0982 10.0467C38.4645 7.95661 37.2593 6.05138 35.2483 4.51349C33.248 2.98371 30.562 1.91418 28.2805 1.51032L25.3507 18.2331ZM25.3507 18.2331C22.4471 17.7189 20.1755 17.016 18.3313 16.3872C17.9305 16.2506 17.5462 16.116 17.1773 15.9868C16.0899 15.6058 15.1375 15.2722 14.2972 15.0741M25.3507 18.2331L14.2972 15.0741M14.2972 15.0741L16.4297 2.91938L19.8046 2.41631C20.7452 2.2761 21.611 2.12303 22.4124 1.97978C22.4679 1.96985 22.5231 1.95998 22.578 1.95016C23.3176 1.81785 23.9986 1.69602 24.6417 1.6003C26.0247 1.39445 27.187 1.31715 28.2804 1.51029L14.2972 15.0741ZM8.61739 14.0509L10.7209 2.05089L8.2777 1.61576L8.61739 14.0509ZM8.61739 14.0509L6.17368 13.618C4.59116 13.3376 3.18359 12.4369 2.26107 11.1131C1.3385 9.78919 0.976864 8.1508 1.25622 6.5585C1.53557 4.96624 2.43282 3.55139 3.74969 2.62475C5.06635 1.69826 6.69489 1.33548 8.27724 1.61568L8.61739 14.0509Z" stroke="black"/>
</svg>
