<svg width="194" height="39" viewBox="0 0 194 39" fill="none" xmlns="http://www.w3.org/2000/svg">
<path d="M9.57179 1.2V14.4H6.5806C4.83532 14.4 3.16152 13.7046 1.92742 12.4669C0.693317 11.2292 0 9.55043 0 7.8C0 6.04957 0.693317 4.37084 1.92742 3.1331C3.16152 1.89536 4.83532 1.2 6.5806 1.2L9.57179 1.2ZM38 10.8C38 15.6 31.1083 18 26.3224 18C23.9295 18 21.5365 16.8 17.9471 15.6L14.3577 14.4V1.2C16.7506 1.2 20.3401 0 26.3224 0C32.3048 0 38 4.7952 38 10.8Z" fill="black"/>
<path d="M122.023 34.6306L119.086 34.1103C117.373 33.8067 115.849 32.8314 114.851 31.399C113.853 29.9665 113.462 28.1943 113.764 26.4721C114.066 24.7499 115.036 23.2189 116.462 22.2158C117.887 21.2128 119.651 20.8198 121.365 21.1234L124.299 21.6461L122.023 34.6306ZM151.591 30.133C150.555 36.0403 144.137 39.7659 138.264 38.7254C132.387 37.6849 129.071 35.8796 126.721 35.4649L128.999 22.478L132.731 21.9218C136.462 21.3656 139.02 20.6032 141.367 21.0179C146.068 21.8499 152.419 25.41 151.591 30.133Z" fill="black"/>
<path d="M49.0234 34.6306L46.0865 34.1103C44.3727 33.8067 42.8491 32.8314 41.8509 31.399C40.8526 29.9665 40.4616 28.1943 40.7637 26.4721C41.0659 24.7499 42.0365 23.2189 43.462 22.2158C44.8875 21.2128 46.6511 20.8198 48.3649 21.1234L51.2995 21.6461L49.0234 34.6306ZM78.5907 30.133C77.5552 36.0403 71.1374 39.7659 65.2636 38.7254C59.3873 37.6849 56.0711 35.8796 53.721 35.4649L55.9995 22.478L59.7309 21.9218C63.4623 21.3656 66.0199 20.6032 68.3675 21.0179C73.0675 21.8499 79.4185 25.41 78.5907 30.133Z" fill="black"/>
<path d="M165.572 1.2V14.4H162.581C160.835 14.4 159.162 13.7046 157.927 12.4669C156.693 11.2292 156 9.55043 156 7.8C156 6.04957 156.693 4.37083 157.927 3.1331C159.162 1.89535 160.835 1.2 162.581 1.2L165.572 1.2ZM194 10.8C194 15.6 187.108 18 182.322 18C179.929 18 177.537 16.8 173.947 15.6L170.358 14.4V1.2C172.751 1.2 176.34 0 182.322 0C188.305 0 194 4.7952 194 10.8Z" fill="black"/>
<path d="M87.5718 1.2V14.4H84.5806C82.8353 14.4 81.1615 13.7046 79.9274 12.4669C78.6933 11.2292 78 9.55043 78 7.8C78 6.04957 78.6933 4.37083 79.9274 3.1331C81.1615 1.89535 82.8353 1.2 84.5806 1.2L87.5718 1.2ZM116 10.8C116 15.6 109.108 18 104.322 18C101.929 18 99.5365 16.8 95.9471 15.6L92.3577 14.4V1.2C94.7506 1.2 98.34 0 104.322 0C110.305 0 116 4.7952 116 10.8Z" fill="black"/>
</svg>
