<svg width="38" height="18" viewBox="0 0 38 18" fill="none" xmlns="http://www.w3.org/2000/svg">
<path d="M9.57179 1.2V14.4H6.5806C4.83532 14.4 3.16152 13.7046 1.92742 12.4669C0.693317 11.2292 9.58054e-07 9.55043 9.58054e-07 7.8C9.58054e-07 6.04957 0.693317 4.37084 1.92742 3.1331C3.16152 1.89536 4.83532 1.2 6.5806 1.2L9.57179 1.2ZM38 10.8C38 15.6 31.1083 18 26.3224 18C23.9295 18 21.5365 16.8 17.9471 15.6L14.3577 14.4V1.2C16.7506 1.2 20.3401 0 26.3224 0C32.3048 0 38 4.7952 38 10.8Z" fill="black"/>
</svg>
