<svg width="34" height="42" viewBox="0 0 34 42" fill="none" xmlns="http://www.w3.org/2000/svg">
<path d="M14.3752 20.4167C15.3543 22.9792 15.2502 25.6458 12.3127 26.7083C6.27101 28.9375 4.91684 23.0833 4.83351 22.7917L14.3752 20.4167ZM3.89601 18.7292L12.896 16.5C12.5002 14.3125 13.1043 12.125 13.1043 9.54165C13.1043 6.04165 10.3335 -0.812514 5.91684 0.291653C0.875173 1.54165 0.146007 7.14582 0.333507 9.85415C0.583507 12.5625 3.75017 18.3542 3.89601 18.7292ZM29.1877 37.3542C29.1252 37.6667 27.7502 43.5 21.7085 41.2917C18.7918 40.2083 18.6668 37.5417 19.646 34.9792L29.1877 37.3542ZM33.6668 24.4375C33.8752 21.7292 33.1668 16.1042 28.1043 14.8542C23.7085 13.7083 20.9377 20.6042 20.9377 24.125C20.9377 26.6875 21.521 28.875 21.1668 31.0625L30.1252 33.2917C30.2918 32.9167 33.4377 27.125 33.6668 24.4375Z" fill="#D9D9D9"/>
</svg>
