<svg width="26" height="44" viewBox="0 0 26 44" fill="none" xmlns="http://www.w3.org/2000/svg">
<path d="M2.27452 17.1135C3.47353 17.1135 4.44551 16.1415 4.44551 14.9425C4.44551 13.7435 3.47353 12.7715 2.27452 12.7715C1.07551 12.7715 0.103516 13.7435 0.103516 14.9425C0.103516 16.1415 1.07551 17.1135 2.27452 17.1135Z" fill="#D9D9D9"/>
<path d="M20.897 9.14902C23.318 9.14902 25.2805 7.18646 25.2805 4.76552C25.2805 2.34458 23.318 0.382019 20.897 0.382019C18.4761 0.382019 16.5135 2.34458 16.5135 4.76552C16.5135 7.18646 18.4761 9.14902 20.897 9.14902Z" fill="#D9D9D9"/>
<path d="M11.856 8.89902C13.3662 8.89902 14.5905 7.67474 14.5905 6.16452C14.5905 4.6543 13.3662 3.43002 11.856 3.43002C10.3458 3.43002 9.12152 4.6543 9.12152 6.16452C9.12152 7.67474 10.3458 8.89902 11.856 8.89902Z" fill="#D9D9D9"/>
<path d="M24.4515 34.0215C23.7777 32.9401 23.3996 31.7007 23.3548 30.4273C23.3101 29.1539 23.6003 27.8911 24.1965 26.765L24.1795 26.7395C25.302 25.0588 25.9 23.0826 25.8975 21.0615C25.8975 15.3985 21.3065 10.808 15.644 10.808C9.98101 10.808 5.39051 15.3985 5.39051 21.0615C5.39051 22.1675 5.57052 23.2305 5.89502 24.229C6.10977 25.1121 6.45848 25.957 6.92902 26.7345L6.88102 26.762L14.308 39.6265C15.092 41.9465 17.2815 43.6185 19.8655 43.6185C23.1075 43.6185 25.737 40.9905 25.737 37.748C25.737 36.3415 25.241 35.051 24.4155 34.04L24.4515 34.0215Z" fill="#D9D9D9"/>
<path d="M6.08051 12.5175C7.27953 12.5175 8.25151 11.5455 8.25151 10.3465C8.25151 9.14751 7.27953 8.17552 6.08051 8.17552C4.8815 8.17552 3.90952 9.14751 3.90952 10.3465C3.90952 11.5455 4.8815 12.5175 6.08051 12.5175Z" fill="#D9D9D9"/>
</svg>
