<svg width="39" height="19" viewBox="0 0 39 19" fill="none" xmlns="http://www.w3.org/2000/svg">
<path d="M9.0234 14.6306L6.08647 14.1103C4.37265 13.8067 2.84906 12.8314 1.85085 11.399C0.852646 9.96652 0.461601 8.19427 0.763741 6.4721C1.06588 4.74993 2.03646 3.21891 3.46196 2.21584C4.88745 1.21277 6.6511 0.819813 8.36492 1.12343L11.2995 1.64607L9.0234 14.6306ZM38.5907 10.133C37.5552 16.0403 31.1374 19.7659 25.2636 18.7254C19.3873 17.6849 16.0711 15.8796 13.721 15.4649L15.9995 2.47798L19.7309 1.92177C23.4623 1.36557 26.0199 0.603184 28.3675 1.01794C33.0675 1.84985 39.4185 5.41004 38.5907 10.133Z" fill="black"/>
</svg>
