<svg width="21" height="25" viewBox="0 0 21 25" fill="none" xmlns="http://www.w3.org/2000/svg">
<path d="M10.0036 25C11.2847 25 12.3213 23.9651 12.3213 22.686H7.68597C7.68597 23.9651 8.72251 25 10.0036 25ZM19.6585 19.5233L18.1561 18.0233V11.0465C18.1561 7.15116 15.4076 3.89535 11.7506 3.10465V1.74419C11.7506 0.77907 10.9703 0 10.0036 0C9.03696 0 8.25665 0.77907 8.25665 1.74419V3.10465C4.59966 3.89535 1.8511 7.15116 1.8511 11.0465V18.0233L0.348709 19.5233C-0.385018 20.2558 0.127426 21.5116 1.16396 21.5116H18.8316C19.8798 21.5116 20.3923 20.2558 19.6585 19.5233ZM11.1683 16.8605H8.83897V14.5349H11.1683V16.8605ZM11.1683 11.0465C11.1683 11.686 10.6442 12.2093 10.0036 12.2093C9.36306 12.2093 8.83897 11.686 8.83897 11.0465V8.72093C8.83897 8.0814 9.36306 7.55814 10.0036 7.55814C10.6442 7.55814 11.1683 8.0814 11.1683 8.72093V11.0465Z" fill="black"/>
</svg>
