<svg width="26" height="25" viewBox="0 0 26 25" fill="none" xmlns="http://www.w3.org/2000/svg">
<path d="M25.0034 7.93182V18.1818C25.0034 19.4318 23.8784 20.4545 22.5034 20.4545H5.00342L0.00341797 25V4.54545C0.00341797 3.29545 1.12842 2.27273 2.50342 2.27273H15.1284C15.0534 2.63636 15.0034 3.02273 15.0034 3.40909C15.0034 6.54545 17.8034 9.09091 21.2534 9.09091C22.6659 9.09091 23.9534 8.64773 25.0034 7.93182ZM17.5034 3.40909C17.5034 5.29545 19.1784 6.81818 21.2534 6.81818C23.3284 6.81818 25.0034 5.29545 25.0034 3.40909C25.0034 1.52273 23.3284 0 21.2534 0C19.1784 0 17.5034 1.52273 17.5034 3.40909Z" fill="black"/>
</svg>
