<svg width="29" height="17" viewBox="0 0 29 17" fill="none" xmlns="http://www.w3.org/2000/svg">
<path d="M3.99439 0.998194V6.47833H2.74607C2.01771 6.47833 1.31918 6.18965 0.804149 5.67578C0.289118 5.16192 -0.000225067 4.46497 -0.000225067 3.73826C-0.000225067 3.01155 0.289118 2.3146 0.804149 1.80074C1.31918 1.28688 2.01771 0.998194 2.74607 0.998194L3.99439 0.998194ZM15.8584 4.98375C15.8584 6.97653 12.9823 7.97291 10.985 7.97291C9.98631 7.97291 8.98766 7.47472 7.48968 6.97653L5.9917 6.47833V0.998194C6.99035 0.998194 8.48833 0.5 10.985 0.5C13.4816 0.5 15.8584 2.49078 15.8584 4.98375Z" fill="#A6A6A6"/>
<path d="M16.63 14.7278L15.4043 14.5118C14.6891 14.3858 14.0532 13.9809 13.6367 13.3862C13.2201 12.7915 13.0569 12.0557 13.183 11.3407C13.3091 10.6257 13.7141 9.99012 14.309 9.57369C14.9039 9.15725 15.64 8.99411 16.3552 9.12016L17.5799 9.33714L16.63 14.7278ZM28.9694 12.8606C28.5372 15.3131 25.8589 16.8598 23.4075 16.4278C20.9552 15.9959 19.5712 15.2464 18.5905 15.0742L19.5413 9.68252L21.0986 9.4516C22.6558 9.22069 23.7232 8.90417 24.7029 9.07636C26.6644 9.42174 29.3149 10.8998 28.9694 12.8606Z" fill="#A6A6A6"/>
</svg>
