<svg width="26" height="25" viewBox="0 0 26 25" fill="none" xmlns="http://www.w3.org/2000/svg">
<path d="M12.5034 0C14.161 0 15.7507 0.65848 16.9228 1.83058C18.0949 3.00268 18.7534 4.5924 18.7534 6.25C18.7534 7.9076 18.0949 9.49732 16.9228 10.6694C15.7507 11.8415 14.161 12.5 12.5034 12.5C10.8458 12.5 9.2561 11.8415 8.084 10.6694C6.9119 9.49732 6.25342 7.9076 6.25342 6.25C6.25342 4.5924 6.9119 3.00268 8.084 1.83058C9.2561 0.65848 10.8458 0 12.5034 0ZM12.5034 15.625C19.4097 15.625 25.0034 18.4219 25.0034 21.875V25H0.00341797V21.875C0.00341797 18.4219 5.59717 15.625 12.5034 15.625Z" fill="black"/>
</svg>
