<svg width="45" height="45" viewBox="0 0 45 45" fill="none" xmlns="http://www.w3.org/2000/svg">
<circle cx="22.5" cy="22.5002" r="22.5" fill="#D9D9D9"/>
<path d="M22.5 9.00018C24.2902 9.00018 26.0071 9.71134 27.273 10.9772C28.5388 12.2431 29.25 13.96 29.25 15.7502C29.25 17.5404 28.5388 19.2573 27.273 20.5232C26.0071 21.789 24.2902 22.5002 22.5 22.5002C20.7098 22.5002 18.9929 21.789 17.727 20.5232C16.4612 19.2573 15.75 17.5404 15.75 15.7502C15.75 13.96 16.4612 12.2431 17.727 10.9772C18.9929 9.71134 20.7098 9.00018 22.5 9.00018ZM22.5 25.8752C29.9587 25.8752 36 28.8958 36 32.6252V36.0002H9V32.6252C9 28.8958 15.0412 25.8752 22.5 25.8752Z" fill="#939393"/>
</svg>
